<svg width="26" height="26" viewBox="0 0 26 26" fill="none" xmlns="http://www.w3.org/2000/svg">
<path d="M14.2883 18.92L11.08 15.7117M14.2533 15.7467L11.045 18.955M8.94501 1L4.72168 5.235M16.3883 1L20.6117 5.235" stroke="black" stroke-width="1.5" stroke-miterlimit="10" stroke-linecap="round" stroke-linejoin="round"/>
<path d="M1 7.82503C1 5.6667 2.155 5.4917 3.59 5.4917H21.7433C23.1783 5.4917 24.3333 5.6667 24.3333 7.82503C24.3333 10.3334 23.1783 10.1584 21.7433 10.1584H3.59C2.155 10.1584 1 10.3334 1 7.82503Z" stroke="black" stroke-width="1.5"/>
<path d="M2.75 10.3335L4.395 20.4135C4.76833 22.6768 5.66667 24.3335 9.00333 24.3335H16.0383C19.6667 24.3335 20.2033 22.7468 20.6233 20.5535L22.5833 10.3335" stroke="black" stroke-width="1.5" stroke-linecap="round"/>
</svg>
