<svg width="26" height="26" viewBox="0 0 26 26" fill="none" xmlns="http://www.w3.org/2000/svg">
<path d="M9.89062 17.3335L11.6406 19.0835L15.4323 15.5835" stroke="black" stroke-width="1.5" stroke-linecap="round" stroke-linejoin="round"/>
<path d="M8.94501 1L4.72168 5.235M16.3883 1L20.6117 5.235" stroke="black" stroke-width="1.5" stroke-miterlimit="10" stroke-linecap="round" stroke-linejoin="round"/>
<path d="M1 7.82503C1 5.6667 2.155 5.4917 3.59 5.4917H21.7433C23.1783 5.4917 24.3333 5.6667 24.3333 7.82503C24.3333 10.3334 23.1783 10.1584 21.7433 10.1584H3.59C2.155 10.1584 1 10.3334 1 7.82503Z" stroke="black" stroke-width="1.5"/>
<path d="M2.66699 10.6667L4.31199 20.7467C4.68533 23.0101 5.58366 24.6667 8.92033 24.6667H15.9553C19.5837 24.6667 20.1203 23.0801 20.5403 20.8867L22.5003 10.6667" stroke="black" stroke-width="1.5" stroke-linecap="round"/>
</svg>
